<?xml version="1.0" encoding="UTF-8"?>
<!-- Generator: Adobe Illustrator 16.0.3, SVG Export Plug-In . SVG Version: 6.00 Build 0)  -->
<svg xmlns="http://www.w3.org/2000/svg" xmlns:xlink="http://www.w3.org/1999/xlink" version="1.1" id="Ebene_1" x="0px" y="0px" width="858.5px" height="858.5px" viewBox="80.5 13.5 858.5 858.5" xml:space="preserve">
<path fill="#0060FF" d="M608.603,367.469c1.378-0.173,2.755-0.173,4.133-0.173c6.199,0,11.192,1.55,11.192,8.61  c0,5.51-4.993,7.749-10.331,7.749c-7.749,0-11.537-3.788-11.365-11.193h-14.465c-1.033,16.187,11.193,23.764,25.83,23.764  c12.57,0,25.657-6.027,25.657-20.319c0-7.577-3.616-12.57-10.849-14.465v-0.172c5.854-1.033,8.782-6.716,8.782-12.398  c0-12.915-12.57-17.564-23.591-17.564c-13.432,0-23.936,7.405-24.108,21.525h14.465c-0.172-5.854,3.616-8.954,9.815-8.954  c4.994,0,9.126,2.238,9.126,6.371c0,5.51-5.682,6.543-10.331,6.543c-1.378,0.173-2.756-0.172-4.133-0.172v10.849H608.603z   M481.177,447.197h28.929v-45.805h38.056v45.805h28.93V336.129h-28.93v40.466h-38.056v-40.466h-28.929V447.197L481.177,447.197z"></path>
<path fill="#0060FF" d="M615.146,509.876H468.778c-2.066,0-3.96-1.033-4.993-2.928l-73.184-126.737c-1.033-1.722-1.033-3.96,0-5.854  l27.896-48.215c1.549-2.756,5.166-3.789,7.921-2.066c2.755,1.55,3.788,5.166,2.066,7.921l-26.174,45.288l69.912,120.882h139.651  l70.085-121.398L627.2,279.476c-1.206-2.927,0.172-6.371,3.1-7.576c2.927-1.205,6.371,0.172,7.576,3.1l55.792,99.874  c0.689,1.722,0.689,3.616-0.344,5.166L620.14,506.777C619.106,508.67,617.213,509.876,615.146,509.876"></path>
<path fill="#0060FF" d="M364.599,372.807h-96.947c-0.861,0-1.55,0.861-1.55,2.066s0.689,2.066,1.55,2.066h96.947  c0.861,0,1.55-0.861,1.55-2.066C366.149,373.84,365.46,372.807,364.599,372.807"></path>
<path fill="#0060FF" d="M679.376,149.123l-48.56,84.032c-0.345,0.688,0,1.722,1.033,2.41c1.033,0.517,2.066,0.517,2.583-0.344  l48.387-84.033c0.345-0.688,0-1.722-1.033-2.41S679.721,148.434,679.376,149.123"></path>
<path fill="#0060FF" d="M680.064,608.89l-48.388-84.032c-0.344-0.689-1.55-0.861-2.583-0.345s-1.377,1.55-1.033,2.41l48.388,84.032  c0.345,0.689,1.55,0.861,2.583,0.345C680.064,610.612,680.581,609.578,680.064,608.89"></path>
<path fill="#0060FF" d="M818.167,184.596h-1.895v15.153h1.895V184.596z M808.352,198.199c-2.411,0-3.444-1.55-3.444-3.961  c0-2.238,1.206-3.961,3.444-3.961s3.444,1.55,3.444,3.961S810.763,198.199,808.352,198.199 M808.352,199.749  c3.444,0,5.338-2.411,5.338-5.511s-1.894-5.511-5.338-5.511c-3.271,0-5.338,2.411-5.338,5.511  C803.014,197.51,804.907,199.749,808.352,199.749 M800.258,188.901c-1.549,0-2.582,0.86-3.1,2.927v-2.755h-1.894v10.677h1.894  v-5.166c0-2.756,1.206-3.961,2.584-3.961c0.688,0,1.377,0.172,1.894,0.517l0.517-1.722  C801.636,189.073,801.119,188.901,800.258,188.901 M792.854,198.027c-0.517,0.173-0.86,0.345-1.377,0.345  c-1.033,0-1.723-0.517-1.723-2.066v-5.683h3.1v-1.55h-3.1v-3.788l-1.722,1.033v2.755h-2.411v1.55h2.411v5.854  c0,2.239,0.861,3.444,3.1,3.444c0.688,0,1.205-0.172,1.722-0.345V198.027z M774.257,199.576h1.894v-5.166  c0-2.755,1.378-4.133,3.271-4.133c2.066,0,2.756,1.378,2.756,3.272v5.854h1.895v-6.371c0-2.583-1.378-4.478-3.961-4.478  c-1.895,0-3.271,1.033-3.961,2.928v-2.756h-1.894V199.576z M766.336,198.199c-2.411,0-3.444-1.55-3.444-3.961  c0-2.238,1.205-3.961,3.444-3.961c2.238,0,3.443,1.55,3.443,3.961C769.951,196.65,768.746,198.199,766.336,198.199 M766.336,199.749  c3.443,0,5.338-2.411,5.338-5.511s-1.895-5.511-5.338-5.511c-3.272,0-5.339,2.411-5.339,5.511  C760.997,197.51,762.892,199.749,766.336,199.749 M759.104,190.622c-0.689-2.928-2.583-4.993-6.199-4.993  c-4.305,0-6.716,3.271-6.716,7.06s1.894,7.061,6.543,7.061c3.789,0,5.855-2.239,6.372-5.511l-1.895-0.345  c-0.345,2.411-1.722,4.133-4.478,4.133c-3.271,0-4.649-2.41-4.649-5.338s1.723-5.338,4.822-5.338c2.755,0,3.788,1.55,4.477,3.788  L759.104,190.622z"></path>
<path fill="#0060FF" d="M163.645,294.457h-31.34l-43.91,74.905l42.016,74.218h84.721l15.153-26.519  c0.517-0.861,1.722-1.205,2.583-0.688s1.206,1.722,0.689,2.583l-16.187,28.412H128l-44.083-78.178l46.149-78.693h33.579  c1.033,0,1.894,0.86,1.894,1.894S164.678,294.457,163.645,294.457z"></path>
<g>
	<g>
		<defs>
			<rect id="SVGID_1_" x="113.88" y="327.864" width="120.021" height="100.391"></rect>
		</defs>
		<clipPath id="SVGID_2_">
			<use xlink:href="#SVGID_1_" overflow="visible"></use>
		</clipPath>
		<path clip-path="url(#SVGID_2_)" fill="#0060FF" d="M142.981,413.79c10.849,0,19.631-8.782,19.631-19.631    s-8.782-19.631-19.631-19.631c-10.848,0-19.63,8.782-19.63,19.631C123.523,405.008,132.305,413.79,142.981,413.79     M142.981,373.668c11.365,0,20.492,9.299,20.492,20.491c0,11.365-9.299,20.491-20.492,20.491s-20.491-9.299-20.491-20.491    S131.788,373.668,142.981,373.668"></path>
	</g>
	<g>
		<defs>
			<rect id="SVGID_3_" x="113.88" y="327.864" width="120.021" height="100.391"></rect>
		</defs>
		<clipPath id="SVGID_4_">
			<use xlink:href="#SVGID_3_" overflow="visible"></use>
		</clipPath>
		<path clip-path="url(#SVGID_4_)" fill="#0060FF" d="M130.755,383.656l2.755,8.609l0.344,1.033l2.411,7.061l-8.782-1.895    c-0.344-1.377-0.517-2.755-0.517-4.305C126.967,390.198,128.344,386.582,130.755,383.656"></path>
	</g>
	<g>
		<defs>
			<rect id="SVGID_5_" x="113.88" y="327.864" width="120.021" height="100.391"></rect>
		</defs>
		<clipPath id="SVGID_6_">
			<use xlink:href="#SVGID_5_" overflow="visible"></use>
		</clipPath>
		<path clip-path="url(#SVGID_6_)" fill="#0060FF" d="M137.643,401.564l7.232,1.55l-6.027,6.716    c-5.166-1.378-9.471-5.166-11.193-10.332l8.782,1.895L137.643,401.564z"></path>
	</g>
	<g>
		<defs>
			<rect id="SVGID_7_" x="113.88" y="327.864" width="120.021" height="100.391"></rect>
		</defs>
		<clipPath id="SVGID_8_">
			<use xlink:href="#SVGID_7_" overflow="visible"></use>
		</clipPath>
		<path clip-path="url(#SVGID_8_)" fill="#0060FF" d="M146.77,402.597l4.994-5.51l2.755,8.609c-2.928,2.928-7.06,4.821-11.538,4.821    c-1.033,0-2.066-0.172-2.927-0.344l6.027-6.716L146.77,402.597z"></path>
	</g>
	<g>
		<defs>
			<rect id="SVGID_9_" x="113.88" y="327.864" width="120.021" height="100.391"></rect>
		</defs>
		<clipPath id="SVGID_10_">
			<use xlink:href="#SVGID_9_" overflow="visible"></use>
		</clipPath>
		<path clip-path="url(#SVGID_10_)" fill="#0060FF" d="M152.107,395.193l-2.411-7.061l8.782,1.895    c0.344,1.378,0.517,2.755,0.517,4.305c0,3.961-1.55,7.577-3.96,10.504l-2.755-8.609L152.107,395.193z"></path>
	</g>
	<g>
		<defs>
			<rect id="SVGID_11_" x="113.88" y="327.864" width="120.021" height="100.391"></rect>
		</defs>
		<clipPath id="SVGID_12_">
			<use xlink:href="#SVGID_11_" overflow="visible"></use>
		</clipPath>
		<path clip-path="url(#SVGID_12_)" fill="#0060FF" d="M148.319,386.755l-7.232-1.55l6.027-6.716    c5.166,1.378,9.471,5.166,11.193,10.332l-8.782-1.895L148.319,386.755z"></path>
	</g>
	<g>
		<defs>
			<rect id="SVGID_13_" x="113.88" y="327.864" width="120.021" height="100.391"></rect>
		</defs>
		<clipPath id="SVGID_14_">
			<use xlink:href="#SVGID_13_" overflow="visible"></use>
		</clipPath>
		<path clip-path="url(#SVGID_14_)" fill="#0060FF" d="M139.365,385.894l-4.994,5.511l-2.755-8.61    c2.927-2.927,7.06-4.821,11.537-4.821c1.033,0,2.066,0.172,2.927,0.345l-6.027,6.715L139.365,385.894z"></path>
	</g>
	<g>
		<defs>
			<rect id="SVGID_15_" x="113.88" y="327.864" width="120.021" height="100.391"></rect>
		</defs>
		<clipPath id="SVGID_16_">
			<use xlink:href="#SVGID_15_" overflow="visible"></use>
		</clipPath>
		<path clip-path="url(#SVGID_16_)" fill="#0060FF" d="M128.344,358.859l0.517,16.187l-14.809-6.543l3.96-2.756l0,0    c-2.066-10.159,0.172-19.802,6.199-27.207c5.511-6.888,13.776-10.676,22.386-10.676c11.193,0,21.525,6.371,28.929,17.908    c7.405-11.537,17.736-17.908,28.929-17.908c8.61,0,16.875,3.96,22.386,10.676c6.027,7.405,8.266,17.048,6.199,27.207    c-5.683,27.896-33.062,46.149-55.104,60.786l-2.411,1.55l-2.238-1.55c-5.338-3.616-11.021-7.404-16.703-11.365l4.994-4.305    c4.821,3.444,9.471,6.543,13.776,9.471l0.172,0.172l0.172-0.172c19.458-12.915,45.977-30.651,51.143-55.964    c1.722-8.266,0-16.015-4.822-21.869c-4.305-5.338-10.848-8.438-17.564-8.438c-10.332,0-19.975,7.06-26.346,19.63l-2.583,5.166    l-2.583-5.166c-6.371-12.397-16.014-19.63-26.346-19.63c-6.716,0-13.087,3.1-17.564,8.438c-4.305,5.166-6.199,12.054-5.338,19.286    L128.344,358.859z"></path>
	</g>
</g>
<g>
	<path fill="#0060FF" d="M215.993,474.747h1.895v-5.165c0-2.756,1.377-4.133,3.271-4.133c2.066,0,2.755,1.377,2.755,3.271v5.854   h1.894v-6.199c0-2.583-1.377-4.477-3.96-4.477c-1.895,0-3.272,1.033-3.961,2.927v-2.755h-1.894V474.747z M208.072,473.37   c-2.411,0-3.444-1.55-3.444-3.961c0-2.238,1.205-3.96,3.444-3.96s3.444,1.55,3.444,3.96   C211.516,471.648,210.311,473.37,208.072,473.37 M208.072,474.92c3.444,0,5.338-2.411,5.338-5.511s-1.894-5.51-5.338-5.51   c-3.272,0-5.338,2.41-5.338,5.51S204.456,474.92,208.072,474.92 M200.151,464.072h-1.895v10.676h1.895V464.072z M197.912,461.144   c0,0.689,0.517,1.206,1.206,1.206c0.861,0,1.205-0.517,1.205-1.206c0-0.688-0.517-1.205-1.205-1.205   C198.429,459.939,197.912,460.455,197.912,461.144 M195.846,473.026c-0.517,0.172-0.861,0.345-1.377,0.345   c-1.033,0-1.722-0.517-1.722-2.066v-5.683h3.1v-1.55h-3.1v-3.788l-1.722,1.033v2.755h-2.411v1.55h2.411v5.854   c0,2.238,0.861,3.444,3.1,3.444c0.688,0,1.205-0.173,1.722-0.345V473.026z M187.236,467.86c-0.517-2.238-1.894-3.96-4.994-3.96   c-3.444,0-5.338,2.41-5.338,5.51s1.894,5.511,5.338,5.511c2.927,0,4.477-1.722,4.994-3.961l-1.894-0.517   c-0.345,1.723-1.378,2.756-3.272,2.756c-2.411,0-3.444-1.55-3.444-3.961c0-2.238,1.206-3.961,3.444-3.961   c1.894,0,2.755,1.206,3.1,2.928L187.236,467.86z M170.016,465.449c2.066,0,3.1,1.377,3.1,3.271H166.4   C166.572,466.655,167.95,465.449,170.016,465.449 M174.666,472.337l-1.55-0.861c-0.689,1.033-1.55,1.722-3.1,1.722   c-2.239,0-3.444-1.377-3.616-3.443h8.61v-0.517c0-2.928-1.722-5.338-4.994-5.338c-3.444,0-5.338,2.583-5.338,5.51   c0,3.1,1.722,5.338,5.51,5.338C172.427,474.92,173.805,473.714,174.666,472.337 M157.102,473.37c-2.411,0-3.616-1.723-3.616-3.961   s1.205-3.96,3.444-3.96c2.066,0,3.444,1.377,3.444,3.96C160.545,471.821,159.34,473.37,157.102,473.37 M162.439,469.238   c0-3.616-2.239-5.338-4.649-5.338c-1.722,0-3.271,0.86-4.133,2.583v-2.411h-1.894v14.637h1.894v-6.371   c0.689,1.55,2.066,2.583,3.961,2.583C160.201,474.92,162.439,472.854,162.439,469.238 M140.226,472.681   c1.033,1.378,2.583,2.239,4.994,2.239c2.755,0,4.133-1.55,4.133-3.272c0-2.065-1.722-2.582-4.133-2.927   c-2.066-0.345-3.1-0.517-3.1-1.722c0-0.861,0.689-1.723,2.411-1.723c1.55,0,2.583,0.689,3.444,1.895l1.377-1.205   c-1.206-1.55-2.583-2.239-4.822-2.239c-2.583,0-4.132,1.378-4.132,3.272c0,1.722,1.205,2.41,3.444,2.755   c2.238,0.344,3.616,0.517,3.616,1.722c0,0.861-0.689,1.722-2.411,1.722c-1.722,0-2.927-0.688-3.788-1.894L140.226,472.681z    M128.517,474.747h1.894v-5.165c0-2.756,1.377-4.133,3.272-4.133c2.066,0,2.755,1.377,2.755,3.271v5.854h1.895v-6.199   c0-2.583-1.378-4.477-3.961-4.477c-1.894,0-3.271,1.033-3.96,2.927v-2.755h-1.894V474.747z M123.351,474.747h1.894v-13.775h-1.894   V474.747z"></path>
</g>
<g>
	<path fill="#0060FF" d="M791.477,22.558h31.512l43.91,74.906l-42.016,74.217h-84.722l-15.153-26.519   c-0.517-0.861-1.722-1.205-2.583-0.688c-0.86,0.517-1.205,1.722-0.688,2.583l16.187,28.412h89.198l44.082-78.178l-46.148-78.694   h-33.578c-1.033,0-1.895,0.861-1.895,1.895S790.443,22.558,791.477,22.558z"></path>
	<path fill="#0060FF" d="M778.217,94.02c-1.894,0-3.271-1.55-3.271-3.271c0-1.895,1.55-3.272,3.271-3.272   c1.895,0,3.271,1.55,3.271,3.272C781.488,92.47,780.111,94.02,778.217,94.02 M770.468,61.819c0,1.206-1.033,2.238-2.238,2.238   s-2.238-1.032-2.238-2.238c0-1.205,1.033-2.238,2.238-2.238C769.435,59.752,770.468,60.614,770.468,61.819 M763.063,78.695   c0,1.894-1.55,3.271-3.271,3.271c-0.172,0-0.345,0-0.688,0c-1.55-0.345-2.583-1.722-2.583-3.271c0-1.895,1.55-3.272,3.271-3.272   c0.172,0,0.345,0,0.688,0C761.858,75.767,763.063,77.145,763.063,78.695 M769.435,111.756c0,1.205-1.033,2.238-2.238,2.238   s-2.238-1.033-2.238-2.238s1.033-2.238,2.238-2.238S769.435,110.551,769.435,111.756 M768.058,124.498   c0,1.206-1.033,2.239-2.239,2.239c-0.172,0-0.172,0-0.172,0c-1.033-0.173-1.722-1.206-1.722-2.239c0-1.205,1.033-2.238,2.238-2.238   c0.173,0,0.173,0,0.173,0C767.368,122.605,768.058,123.465,768.058,124.498 M769.435,146.367c-2.066,0.517-7.06,0.689-10.331-5.683   c-0.173-1.722,1.377-4.305,2.927-7.06c1.206-2.066,2.411-4.133,2.928-5.166h0.172c0.345,0,0.688,0.172,0.861,0.172   c2.238,0,4.133-1.894,4.133-4.133c0-2.066-1.55-3.788-3.444-3.96c-0.344,0-0.688-0.173-0.861-0.173   c-2.238,0-4.132,1.895-4.132,4.133c0,0.861,0.344,1.723,0.86,2.411c-1.033,2.238-4.305,9.299-7.232,10.504   c-2.066,0.345-3.788,0-4.821-0.861c-2.411-2.238-2.583-7.231-2.411-9.126l0.173-1.895l-1.722-0.688   c-0.689-0.345-2.411-1.378-2.583-2.411c-0.173-0.86,0.517-2.238,2.066-3.616c0,0,5.683-3.271,4.993-4.821   c-0.688-1.55-6.888,0.517-6.888,0.517c-4.478,0.345-5.338-1.722-5.511-2.41c-0.86-2.411,0-5.339,0.861-6.199h4.821   c1.378,0,2.411-1.033,2.411-2.411s-1.033-2.411-2.411-2.411h-4.649l-0.172-0.172c-1.55-0.861-5.166-2.928-4.821-10.332   c0.172-5.338,2.755-7.576,5.683-9.126c4.305,2.927,8.609,6.199,9.471,7.404v11.021c0,0.688,0.517,1.378,1.377,1.378   c0,0,7.061,0,11.193,0c3.443,0,3.443,0.86,3.443,1.205c0,1.895,0,4.649,0,5.511c-1.549,0.517-2.755,2.066-2.755,3.96   c0,2.239,1.895,4.133,4.133,4.133s4.133-1.894,4.133-4.133c0-1.722-1.205-3.271-2.755-3.788c0-0.688,0-3.444,0-5.511   c0-2.583-2.066-3.96-6.027-3.96c-3.1,0-7.576,0-9.815,0v-9.987c0-0.689,0-1.895-10.676-9.299v-0.172   c-0.345-5.683,1.205-8.094,2.583-9.127c2.927,5.511,7.404,8.094,9.471,8.954c0,2.928,2.066,5.166,4.821,5.683   c0.345,0,0.861,0.172,1.206,0.172c3.271,0,6.026-2.755,6.026-6.026c0-2.928-2.066-5.338-4.821-5.854   c-0.345,0-0.861-0.173-1.205-0.173c-1.551,0-2.928,0.689-3.961,1.55c-1.55-0.688-5.683-3.1-7.921-8.438   c0-0.172-1.723-4.821,1.033-8.266c3.271-4.305,9.815-1.722,10.159-1.55l1.205,0.517l4.306,3.616   c-0.345,0.517-0.517,1.206-0.517,1.895c0,2.238,1.894,4.133,4.133,4.133c0,0,0,0,0.172,0c0,0,0,0,0.172,0   c2.239,0,4.133-1.895,4.133-4.133s-1.894-4.133-4.133-4.133c0,0,0,0-0.172,0c0,0,0,0-0.172,0c-0.861,0-1.55,0.172-2.239,0.688   l-3.788-3.616l0.172-0.688c0.689-3.444,3.789-6.027,7.232-6.027c6.027,0,6.716,5.166,6.716,7.232v29.618   c-2.238,0.861-3.96,3.1-3.96,5.683s1.722,4.821,3.96,5.683v42.705v0.172C776.323,142.235,773.396,145.507,769.435,146.367    M781.145,85.409V55.448c0-7.232-4.649-12.226-11.537-12.226c-4.822,0-9.299,3.099-11.193,7.404   c-3.443-0.861-9.471-1.206-13.432,3.788c-2.927,3.788-2.755,8.094-2.41,10.676c-2.583,1.378-5.854,4.649-5.683,12.571   c-3.271,2.066-6.888,5.51-7.232,12.57c-0.172,7.576,2.755,11.364,5.166,13.259c0,0.172,0,0.345,0,0.345   c-1.205,2.238-1.722,5.166-1.378,7.749c0.517,3.788,2.756,6.371,6.372,7.404c-0.689,1.377-0.861,2.927-0.517,4.305   c0.517,2.583,2.583,4.305,3.96,5.338c0,2.756,0.517,8.266,3.961,11.537c1.378,1.206,3.788,2.583,7.404,2.411   c3.271,6.544,8.438,8.954,12.915,8.954c1.033,0,2.066-0.172,3.1-0.345c6.371-1.377,10.848-6.715,10.676-12.397v-43.05   c1.895-1.033,3.1-2.927,3.1-5.166C784.416,88.337,782.866,86.443,781.145,85.409"></path>
	<path fill="#0060FF" d="M802.497,126.909c-1.206,0-2.239-1.033-2.239-2.238c0-1.206,1.033-2.239,2.239-2.239   c1.205,0,2.238,1.033,2.238,2.239C804.735,125.876,803.702,126.909,802.497,126.909 M803.53,111.24   c0,1.205-1.033,2.238-2.239,2.238c-1.205,0-2.238-1.033-2.238-2.238s1.033-2.238,2.238-2.238   C802.497,109.001,803.53,110.034,803.53,111.24 M829.876,112.101c-0.172,0.688-1.033,2.755-5.51,2.41l-4.994-0.344l2.583,4.132   c1.55,2.411,2.066,4.478,1.55,5.683c-0.517,1.206-2.238,1.55-2.238,1.55h-0.173c-3.788-2.755-8.438-6.371-9.126-7.749   c-0.345-0.517-0.172-1.894-0.172-3.099c0-1.895,0.172-4.133-1.723-4.306c-1.033,0-3.96,0-4.993,0c-0.517-1.722-2.066-3.1-3.961-3.1   c-2.238,0-4.133,1.895-4.133,4.133c0,2.239,1.895,4.133,4.133,4.133c1.895,0,3.444-1.205,3.961-3.1c1.033,0,3.443,0,4.649,0   c0.172,0.517,0,1.55,0,2.239c0,1.55-0.173,3.099,0.517,4.132c1.033,1.895,5.854,5.511,9.126,7.922l0.173,1.55   c0.172,1.722,0.344,6.543-1.723,8.438c-1.033,1.033-2.755,1.377-4.993,0.86l-1.378-0.344l-5.854-10.16   c0.517-0.688,1.033-1.55,1.033-2.583c0-2.238-1.895-4.133-4.133-4.133s-4.133,1.895-4.133,4.133c0,2.239,1.895,4.133,4.133,4.133   c0.345,0,0.517,0,0.86-0.172l6.372,11.192c-3.272,7.405-8.61,7.232-10.849,6.716c-3.961-0.86-6.888-4.133-6.716-7.404v-33.578   c2.066-0.689,3.616-2.411,4.133-4.478h8.266c0.688,0,1.378-0.517,1.378-1.377c0,0,0-1.723,0-4.133c0-0.345,0-1.206,3.443-1.206   c4.305,0,9.643,0,9.643,0c0.689,0,1.378-0.517,1.378-1.377v-4.306c0.688-1.033,4.305-3.96,7.921-6.888   c2.928,1.55,5.511,3.788,5.683,8.954c0.173,7.405-3.271,9.471-4.821,10.332l-0.172,0.172h-4.649c-1.378,0-2.411,1.033-2.411,2.411   s1.033,2.411,2.411,2.411h4.821C829.704,106.762,830.737,109.862,829.876,112.101 M790.443,96.431c1.894,0,3.443,1.55,3.443,3.271   c0,1.894-1.55,3.271-3.443,3.271c-1.895,0-3.272-1.55-3.272-3.271C786.999,97.808,788.549,96.431,790.443,96.431 M811.968,78.695   c0,1.894-1.55,3.271-3.271,3.271c-1.895,0-3.272-1.55-3.272-3.271c0-1.723,1.55-3.272,3.272-3.272   C810.59,75.422,811.968,76.972,811.968,78.695 M802.497,61.819c0,1.206-1.033,2.238-2.239,2.238c-1.205,0-2.238-1.032-2.238-2.238   c0-1.205,1.033-2.238,2.238-2.238C801.464,59.58,802.497,60.614,802.497,61.819 M798.881,48.215c3.443,0,6.543,2.583,7.232,6.027   l0.172,0.517l-3.788,3.616c-0.688-0.345-1.378-0.689-2.239-0.689c-2.238,0-4.132,1.895-4.132,4.133s1.894,4.133,4.132,4.133   c2.239,0,4.133-1.895,4.133-4.133c0-0.688-0.172-1.377-0.516-1.894l3.099-2.928l2.583-1.033c0.345-0.172,6.716-2.755,10.16,1.55   c2.755,3.444,1.205,8.093,1.033,8.266c-2.238,5.51-6.371,7.749-7.921,8.438c-1.033-1.033-2.411-1.55-3.961-1.55   c-3.271,0-6.026,2.755-6.026,6.027c0,3.271,2.755,6.026,6.026,6.026s5.854-2.583,6.027-5.854c2.065-0.861,6.543-3.444,9.471-8.954   c1.205,1.033,2.755,3.271,2.583,8.782c-0.345,0.86-0.689,1.377-1.723,2.066c-7.232,5.854-7.232,6.888-7.232,7.404v3.271   c-1.894,0-5.338,0-8.438,0c-4.133,0-6.026,1.378-6.026,3.961c0,1.033,0,2.066,0,2.755h-7.405c-0.516-2.066-2.065-3.616-3.96-4.133   V55.448C792.165,53.209,792.854,48.215,798.881,48.215 M838.658,90.404c-0.172-7.061-3.961-10.504-7.232-12.57   c0-8.094-3.271-11.365-5.683-12.57c0.517-2.583,0.517-6.888-2.41-10.677c-3.961-5.166-9.987-4.649-13.432-3.788   c-1.895-4.305-6.371-7.404-11.192-7.404c-6.889,0-11.538,4.821-11.538,12.226v39.089c-1.722,1.033-2.927,2.928-2.927,5.166   s1.205,3.961,2.927,5.166v33.923c-0.344,5.683,4.306,11.021,10.677,12.398c1.033,0.172,1.895,0.344,2.928,0.344   c4.648,0,9.814-2.41,12.914-8.954c3.616,0.173,6.027-1.033,7.404-2.41c3.1-3.1,3.444-7.921,3.444-10.677   c1.378-0.688,2.755-1.722,3.616-3.616c0.861-1.894,0.861-4.133-0.172-6.716c3.788-0.86,6.199-3.271,6.888-7.231   c0.345-2.756-0.173-5.855-1.55-8.094C835.903,101.941,839.003,98.153,838.658,90.404"></path>
</g>
<path fill="#0060FF" d="M794.92,574.967h31.513l43.91,74.905l-42.017,74.217h-84.721l-15.153-26.519  c-0.517-0.86-1.722-1.205-2.583-0.688s-1.205,1.722-0.689,2.583l16.188,28.413h89.198l44.082-78.178l-46.148-78.694H794.92  c-1.033,0-1.894,0.861-1.894,1.895C793.026,574.106,793.887,574.967,794.92,574.967z"></path>
<rect x="725.008" y="571.006" fill="none" width="149.812" height="156.872"></rect>
<g>
	<path fill="#0060FF" d="M823.16,751.469c-2.066,0-3.443-1.378-3.443-3.789c0-2.41,1.377-3.96,3.443-3.96   c2.411,0,3.444,1.722,3.444,3.96C826.604,749.746,825.571,751.469,823.16,751.469 M822.644,753.019c1.723,0,3.1-0.861,3.961-2.583   v1.377c0,2.756-1.378,3.961-3.444,3.961c-1.55,0-2.583-0.688-3.271-1.722l-1.722,1.033c1.033,1.55,2.583,2.41,4.821,2.41   c3.271,0,5.338-1.894,5.338-5.683v-9.471h-1.894v2.411c-0.689-1.55-1.895-2.583-3.789-2.583c-2.583,0-4.821,1.895-4.821,5.51   C817.822,751.296,820.061,753.019,822.644,753.019 M805.769,753.019h1.895v-5.166c0-2.755,1.377-4.133,3.271-4.133   c2.066,0,2.755,1.378,2.755,3.271v5.854h1.895v-6.371c0-2.583-1.378-4.477-3.961-4.477c-1.894,0-3.271,1.033-3.96,2.927v-2.755   h-1.895V753.019L805.769,753.019z M802.497,742.342h-1.895v10.677h1.895V742.342z M800.431,739.415   c0,0.688,0.517,1.205,1.205,1.205c0.861,0,1.206-0.517,1.206-1.205c0-0.689-0.518-1.206-1.206-1.206   C800.775,738.209,800.431,738.726,800.431,739.415 M797.503,737.865h-1.894v15.153h1.894V737.865z M787.171,751.641   c-2.066,0-3.443-1.377-3.443-3.96c0-2.411,1.377-3.961,3.443-3.961c2.411,0,3.444,1.722,3.444,3.961   C790.615,749.746,789.41,751.641,787.171,751.641 M781.833,747.681c0,3.616,2.239,5.338,4.649,5.338   c1.722,0,3.271-0.861,3.961-2.583v2.41h1.894v-15.153h-1.894v6.716c-0.689-1.55-1.895-2.41-3.789-2.41   C784.244,742.17,781.833,744.065,781.833,747.681 M769.607,753.019h1.894v-5.166c0-2.755,1.378-4.133,3.272-4.133   c2.066,0,2.755,1.378,2.755,3.271v5.854h1.895v-6.371c0-2.583-1.378-4.477-3.961-4.477c-1.895,0-3.271,1.033-3.96,2.927v-2.755   h-1.895V753.019z M761.17,751.813c-1.378,0-2.066-0.688-2.066-1.549c0-1.206,1.033-1.723,3.1-2.239   c1.549-0.344,2.41-0.688,2.927-1.205v0.861C764.958,750.091,763.063,751.813,761.17,751.813 M760.48,753.191   c1.895,0,3.616-1.033,4.305-2.928v2.756h1.723v-7.232c0-2.238-1.55-3.616-4.133-3.616c-2.411,0-4.133,1.205-4.994,3.271   l1.723,0.517c0.688-1.55,1.549-2.41,3.271-2.41c1.895,0,2.41,0.86,2.41,1.722c0,1.033-0.86,1.205-2.927,1.722   c-1.55,0.345-2.583,0.688-3.271,1.033c-0.861,0.517-1.378,1.205-1.378,2.411C757.209,751.986,758.242,753.191,760.48,753.191    M743.434,753.019h1.894v-6.372h7.404v6.372h1.895v-13.776h-1.895v6.199h-7.404v-6.199h-1.894V753.019z"></path>
</g>
<path fill="#FFFFFF" d="M353.062,554.131c0,3.1,0,6.371,0,9.643c0,19.458,3.1,27.379,3.271,27.552l2.927,8.093h25.313  c0.172-3.1,0.689-7.404,3.1-8.781c16.531-9.127,37.54-29.791,39.089-33.063c0-1.722-0.173-2.928-0.861-3.788  c-0.688-0.688-1.722-1.205-3.271-1.205s-3.272,0.517-3.961,0.688c-3.1,3.443-8.266,8.954-10.16,9.643  c-1.894,0.689-3.788,0.861-5.51,0.861c-7.06,0-11.365-4.478-11.537-4.649c-0.344-0.345-0.517-0.861-0.517-1.378v-39.605  c0-0.516,0.172-0.86,0.344-1.205c6.027-8.093,12.743-17.22,13.432-18.77c0.344-1.894,0.172-3.271-0.517-4.305  c-0.689-0.861-2.066-1.378-3.616-1.378c-1.894,0-3.272,0.689-3.616,1.206c-0.689,1.033-10.332,12.397-16.187,19.286  c-0.172,1.205-0.344,5.338-0.517,8.782v8.609c0,1.033-0.861,1.895-1.722,1.895c-1.033,0-1.722-0.861-1.722-1.895v-8.609  c0-3.616-1.895-4.306-3.616-4.306c-1.722,0-3.616,0.861-4.994,2.411c-0.861,1.033-1.894,2.755-1.894,5.338v7.577  c0,1.033-0.861,1.894-1.722,1.894l0,0c-1.033,0-1.722-0.86-1.722-1.894v-0.173l0,0l0,0c0-3.616-1.722-5.854-4.305-5.854  c-2.411,0-4.994,1.895-5.166,4.821C352.89,536.739,352.89,545.176,353.062,554.131 M404.032,505.571  c-2.755,3.961-6.371,8.782-9.643,13.26v38.228c1.206,1.033,4.133,3.1,8.438,3.1c1.55,0,2.928-0.172,4.478-0.688  c0.688-0.345,2.411-1.895,4.305-3.961h-8.438c-1.377,0-2.411-1.033-2.411-2.238v-30.135c0-1.033,1.205-2.583,3.271-4.821  l0.172-0.172c0-0.173-0.172-0.517-0.172-0.689c-0.344-1.033-0.688-2.583-0.688-3.788  C403.171,512.803,403.516,509.015,404.032,505.571 M414.708,522.963c-0.172-0.517-1.722-2.238-2.239-2.928  c-0.688-0.86-1.033-1.205-1.205-1.377c-0.172-0.517,0-1.206,0.344-2.239c0.344-0.86,0.689-2.066,0.517-2.755  c0-1.55-1.377-12.57-1.377-13.087c-0.345-1.378-1.55-1.55-2.066-1.55c-1.206,0-2.239,0.688-2.411,1.378  c-0.172,0.688-1.378,11.537-1.378,13.087c0,0.86,0.345,2.238,0.689,3.271c0.344,1.205,0.517,1.55,0.172,2.066  c0,0.172-0.172,0.172-0.689,0.688c-2.066,2.411-2.755,3.272-2.755,3.444v30.135c0,0,0.172,0.344,0.517,0.344h11.021  c0.344,0,0.517-0.172,0.517-0.344L414.708,522.963z M349.618,531.229c0.172-5.339,4.649-8.438,8.609-8.438  c1.55,0,3.1,0.516,4.305,1.377v-1.205c0-0.345,0.172-0.689,0.344-1.033c0.345-1.723,1.206-3.444,2.583-4.821  c2.066-2.239,4.822-3.616,7.577-3.616c1.55,0,2.755,0.344,3.789,1.033c0.172-3.1,0.517-3.444,0.861-3.789  c7.577-8.954,15.67-18.425,16.187-19.286c1.206-1.894,4.133-2.755,6.543-2.755c2.755,0,4.994,1.033,6.372,2.928  c0.861,1.033,1.549,2.927,1.549,5.51c0.172,0,0.517,0,0.689,0c1.894,0,3.444,1.206,3.789,2.928  c0.172,0.345,1.377,12.398,1.55,13.604c0,1.033-0.345,2.411-0.689,3.444c-0.172,0.344-0.172,0.688-0.344,1.033  c0.172,0.172,0.517,0.517,0.688,0.86c1.55,1.895,2.755,3.271,2.755,4.305v27.035c0,0,0.172,0,0.172-0.172  c0.172,0,2.755-1.033,5.51-1.033c2.583,0,4.478,0.861,5.855,2.238c1.377,1.55,2.066,3.789,1.894,6.716  c-0.345,4.649-25.141,27.207-40.811,35.989c-0.689,0.517-1.206,4.133-1.206,7.232c0,0.517-0.172,1.033-0.517,1.378  c-0.344,0.344-0.861,0.517-1.205,0.517h-28.241c-0.688,0-1.377-0.517-1.722-1.206l-3.272-9.126  c-0.172-0.345-3.444-8.438-3.444-28.93c0-3.271,0-6.371,0-9.643C349.446,545.176,349.273,536.739,349.618,531.229"></path>
<path fill="#0060FF" stroke="#0060FF" stroke-width="0.437" stroke-miterlimit="10" d="M757.726,659.171c0,3.1,0,6.371,0,9.643  c0,19.459,3.1,27.38,3.271,27.552l2.928,8.094h25.313c0.173-3.1,0.689-7.404,3.1-8.782c16.531-9.127,37.539-29.79,39.089-33.062  c0-1.723-0.172-2.928-0.86-3.789c-0.689-0.688-1.723-1.205-3.272-1.205s-3.271,0.517-3.96,0.688c-3.1,3.444-8.266,8.954-10.16,9.644  c-1.894,0.688-3.788,0.86-5.51,0.86c-7.061,0-11.365-4.477-11.537-4.649c-0.345-0.344-0.517-0.86-0.517-1.377v-39.605  c0-0.517,0.172-0.861,0.344-1.205c6.027-8.094,12.743-17.221,13.432-18.77c0.345-1.895,0.172-3.272-0.517-4.306  c-0.688-0.86-2.066-1.377-3.616-1.377c-1.895,0-3.271,0.688-3.616,1.205c-0.688,1.033-10.332,12.398-16.187,19.286  c-0.172,1.205-0.344,5.338-0.517,8.782v8.609c0,1.033-0.86,1.895-1.722,1.895c-1.033,0-1.722-0.861-1.722-1.895v-8.609  c0-3.616-1.895-4.305-3.616-4.305c-1.723,0-3.616,0.86-4.994,2.41c-0.861,1.033-1.895,2.755-1.895,5.338v7.577  c0,1.033-0.86,1.895-1.722,1.895l0,0c-1.033,0-1.722-0.861-1.722-1.895v-0.172l0,0l0,0c0-3.616-1.722-5.855-4.305-5.855  c-2.411,0-4.994,1.895-5.166,4.822C757.554,641.78,757.554,650.217,757.726,659.171z M808.696,610.612  c-2.756,3.96-6.372,8.782-9.644,13.259v38.229c1.205,1.033,4.133,3.099,8.438,3.099c1.55,0,2.928-0.172,4.478-0.688  c0.688-0.345,2.411-1.894,4.305-3.96h-8.438c-1.378,0-2.411-1.033-2.411-2.239v-30.134c0-1.033,1.206-2.583,3.272-4.822l0.172-0.172  c0-0.172-0.172-0.517-0.172-0.688c-0.345-1.033-0.689-2.583-0.689-3.789C807.835,617.844,808.18,614.055,808.696,610.612z   M819.372,628.003c-0.172-0.517-1.722-2.238-2.238-2.927c-0.688-0.861-1.033-1.206-1.206-1.378c-0.172-0.517,0-1.205,0.345-2.238  c0.345-0.861,0.688-2.066,0.517-2.756c0-1.55-1.377-12.57-1.377-13.087c-0.345-1.377-1.55-1.55-2.066-1.55  c-1.206,0-2.239,0.689-2.411,1.378s-1.378,11.537-1.378,13.087c0,0.861,0.345,2.238,0.689,3.271c0.344,1.206,0.517,1.55,0.172,2.066  c0,0.173-0.172,0.173-0.688,0.689c-2.066,2.41-2.756,3.271-2.756,3.443v30.135c0,0,0.173,0.345,0.517,0.345h11.021  c0.344,0,0.516-0.173,0.516-0.345L819.372,628.003z M754.281,636.269c0.173-5.338,4.649-8.438,8.61-8.438  c1.55,0,3.1,0.517,4.305,1.377v-1.205c0-0.345,0.173-0.688,0.345-1.033c0.344-1.722,1.205-3.443,2.583-4.821  c2.066-2.238,4.821-3.616,7.576-3.616c1.55,0,2.756,0.345,3.788,1.033c0.173-3.1,0.518-3.444,0.861-3.788  c7.577-8.955,15.67-18.426,16.187-19.286c1.206-1.895,4.133-2.756,6.544-2.756c2.755,0,4.993,1.033,6.371,2.928  c0.861,1.033,1.55,2.928,1.55,5.511c0.172,0,0.517,0,0.688,0c1.895,0,3.444,1.205,3.789,2.927  c0.172,0.345,1.377,12.398,1.549,13.604c0,1.033-0.344,2.411-0.688,3.444c-0.172,0.345-0.172,0.688-0.345,1.033  c0.173,0.172,0.518,0.517,0.689,0.861c1.55,1.894,2.755,3.271,2.755,4.305v27.035c0,0,0.172,0,0.172-0.173  c0.173,0,2.756-1.033,5.511-1.033c2.583,0,4.478,0.861,5.854,2.239c1.378,1.55,2.066,3.788,1.895,6.715  c-0.345,4.649-25.141,27.208-40.811,35.989c-0.689,0.517-1.206,4.133-1.206,7.232c0,0.517-0.172,1.033-0.517,1.378  c-0.344,0.345-0.86,0.517-1.205,0.517h-28.24c-0.688,0-1.378-0.517-1.722-1.205l-3.272-9.127c-0.172-0.345-3.443-8.438-3.443-28.929  c0-3.272,0-6.372,0-9.644C754.109,650.217,753.938,641.78,754.281,636.269z"></path>
<rect x="349.102" y="488.352" fill="none" width="81.449" height="115.199"></rect>
</svg>
